<?xml version="1.0" encoding="utf-8"?>
<!-- Generator: Adobe Illustrator 15.1.0, SVG Export Plug-In . SVG Version: 6.00 Build 0)  -->
<!DOCTYPE svg PUBLIC "-//W3C//DTD SVG 1.1//EN" "http://www.w3.org/Graphics/SVG/1.1/DTD/svg11.dtd">
<svg version="1.1" id="Layer_1" xmlns="http://www.w3.org/2000/svg" xmlns:xlink="http://www.w3.org/1999/xlink" x="0px" y="0px"
	 width="530.667px" height="434.971px" viewBox="0 0 530.667 434.971" enable-background="new 0 0 530.667 434.971"
	 xml:space="preserve">
<radialGradient id="SVGID_1_" cx="265" cy="175.1499" r="215.9535" gradientUnits="userSpaceOnUse">
	<stop  offset="0" style="stop-color:#FFB545"/>
	<stop  offset="0.4562" style="stop-color:#FFB343"/>
	<stop  offset="0.6342" style="stop-color:#FFAC3D"/>
	<stop  offset="0.7636" style="stop-color:#FFA031"/>
	<stop  offset="0.8695" style="stop-color:#FF8F21"/>
	<stop  offset="0.96" style="stop-color:#FF790C"/>
	<stop  offset="1" style="stop-color:#FF6C00"/>
</radialGradient>
<path fill="url(#SVGID_1_)" d="M522.73,269.03c0,15.04-1.29,29.78-3.771,44.121c-0.01,0.08-0.03,0.149-0.04,0.229
	c-0.46,2.69-0.97,5.36-1.52,8.01c-0.61,2.96-1.271,5.891-1.98,8.811c-0.72,2.95-1.49,5.88-2.31,8.79V339H16.9v-0.01
	c-0.82-2.91-1.59-5.84-2.31-8.79c-1.36-5.55-2.53-11.16-3.51-16.84l-0.04-0.21c-2.48-14.33-3.77-29.07-3.77-44.121
	c0-58.24,19.32-111.97,51.89-155.12C106.21,51.58,180.9,11.3,265,11.3c110.88,0,205.41,70.02,241.77,168.26
	C517.09,207.43,522.73,237.57,522.73,269.03z"/>
<path opacity="0.2" fill="#FFF9B3" d="M413.223,241.858C411.843,162.914,348.163,98,269.799,98
	c-79.229,0-143.457,64.975-143.457,145.126c0,0.818,0.033,1.629,0.046,2.444C222.016,245.401,317.604,241.316,413.223,241.858z"/>
<path opacity="0.89" fill="#FFF992" d="M378.212,225.527c-1.043-58.718-49.18-107-108.417-107
	c-59.892,0-108.442,48.328-108.442,107.942c0,0.609,0.025,1.211,0.035,1.818C233.674,228.162,305.932,225.125,378.212,225.527z"/>
<ellipse fill="#F9FFC0" cx="269.794" cy="226.665" rx="88.91" ry="88.5"/>
<path fill="#22A835" d="M418.52,313.36H11.08c-2.51-14.4-3.81-29.21-3.81-44.331c0-58.24,19.32-111.97,51.89-155.12
	c18.7,5.16,76.93,22.77,110.46,50.09c40.33,32.87,82.22,82.29,97.2,95.94c14.979,13.64,119.819,48.27,119.819,48.27L418.52,313.36z"
	/>
<path fill="#178E47" d="M522.73,269.03c0,15.12-1.301,29.94-3.811,44.35l-321.03-0.21c0,0,44.47-35.65,71.9-40.53
	c0,0,47.12-6.7,84-20.1c36.88-13.41,82.24-53.61,110.08-60.83c18.01-4.67,29.979-8.91,42.899-12.15
	C517.09,207.43,522.73,237.57,522.73,269.03z"/>
<g>
	<rect x="39.736" y="191.711" fill="#EADCCA" width="170.558" height="121.65"/>
	<rect x="107.98" y="191.711" fill="#E2D4C5" width="102.641" height="121.65"/>
	<rect x="55.944" y="207.815" fill="#7DF3FF" width="17.474" height="32.474"/>
	<rect x="99.243" y="207.815" fill="#77E5F7" width="17.474" height="32.474"/>
	<rect x="137.388" y="207.815" fill="#77E5F7" width="17.474" height="32.474"/>
	<rect x="174.501" y="207.815" fill="#77E5F7" width="17.474" height="32.474"/>
	<rect x="174.501" y="260.525" fill="#77E5F7" width="17.474" height="32.474"/>
	<rect x="137.388" y="259.938" fill="#77E5F7" width="17.474" height="32.474"/>
	<rect x="99.243" y="259.939" fill="#77E5F7" width="17.474" height="32.473"/>
	<rect x="55.944" y="260.525" fill="#7DF3FF" width="17.474" height="32.473"/>
</g>
<g>
	<rect x="433.68" y="158.722" fill="#FFDDA6" width="27.001" height="154.64"/>
	<rect x="439.734" y="266" fill="#E0C194" width="14.933" height="47.361"/>
	<path fill="#E23513" d="M418.524,163.803c6.645-19.592,20.633-32.784,28.501-51.473c8.742,18.689,20.982,32.981,28.851,51.67
		c-15.737-4.397-32.348-6.596-48.432-2.524C422.074,162.823,418.524,163.803,418.524,163.803z"/>
	<path fill="#D12913" d="M447.025,112.33c8.742,18.689,20.982,32.981,28.851,51.67c-9.896-2.766-20.139-4.662-30.378-4.675"/>
</g>
<g>
	<rect x="214.042" y="173.408" fill="#FFF0D9" width="204.482" height="141.729"/>
	<rect x="314.982" y="173.408" fill="#F7E8D5" width="103.542" height="143.042"/>
	<rect x="222.242" y="158.722" fill="#FFD8BD" width="17.474" height="16.495"/>
	<rect x="246.187" y="158.722" fill="#FFD8BD" width="17.474" height="16.495"/>
	<rect x="230.979" y="191.711" fill="#D7F9F7" width="17.474" height="21.649"/>
	<rect x="230.979" y="233.464" fill="#D7F9F7" width="17.474" height="21.649"/>
	<rect x="230.979" y="272.64" fill="#D7F9F7" width="17.474" height="21.649"/>
	<rect x="378.532" y="276.176" fill="#CEF2F1" width="17.474" height="21.649"/>
	<rect x="378.531" y="233.464" fill="#CEF2F1" width="17.475" height="21.649"/>
	<rect x="306.242" y="191.711" fill="#CEF2F1" width="17.474" height="21.649"/>
	<rect x="378.531" y="191.711" fill="#CEF2F1" width="17.474" height="21.649"/>
	<rect x="269.794" y="158.722" fill="#FFD8BD" width="17.475" height="16.495"/>
	<rect x="293.505" y="158.722" fill="#FFD8BD" width="17.475" height="16.495"/>
	<rect x="320.283" y="158.722" fill="#F2CBB1" width="17.475" height="16.495"/>
	<rect x="345.052" y="158.722" fill="#F2CBB1" width="17.475" height="16.495"/>
	<rect x="369.794" y="158.722" fill="#F2CBB1" width="17.475" height="16.495"/>
	<rect x="394.536" y="158.722" fill="#F2CBB1" width="17.475" height="16.495"/>
	<path fill="#DBAE67" d="M349.518,303.033c0,3.451-0.152,6.841-0.455,10.141h-68.166c-0.303-3.3-0.455-6.689-0.455-10.141
		c0-34.623,15.462-62.683,34.541-62.683C334.055,240.351,349.518,268.41,349.518,303.033z"/>
	<path fill="#DBAE67" d="M280.899,312.587c-0.303-3.3-0.455-6.689-0.455-10.141c0-34.623,15.462-62.683,34.541-62.683"/>
	<path fill="#D1A565" d="M314.985,239.764c19.072,0,34.535,28.06,34.535,62.683c0,3.451-0.152,6.841-0.455,10.141h-37.732"/>
</g>
<polyline fill="#26EA75" points="518.96,312.165 11.04,312.165 14.28,326.455 "/>
<g>
	<polygon fill="#26EA75" points="518.96,313.15 513.11,338.99 513.11,339 16.9,339 16.9,338.99 11.04,313.15 	"/>
	<polygon fill="#25D86D" points="14.28,326.455 16.9,338.005 16.9,338.015 513.11,338.015 515.342,328.152 	"/>
</g>
<path fill-rule="evenodd" clip-rule="evenodd" fill="#CCCCCC" stroke="#CCCCCC" stroke-miterlimit="10" d="M54.89,393.711
	c1.218,27.9,33.944,37.516,62.509,23.029c1.038-13.767,3.559-26.05,11.515-32.898c-22.06-2.32-23.726,15.753-26.32,32.898
	c-46.483,19.791-38.453-57.332-8.225-62.509c13.232-2.266,19.367,2.635,27.965,18.096c0-4.936,0-9.87,0-14.807
	C91.018,335.161,53.489,361.577,54.89,393.711z"/>
<path fill-rule="evenodd" clip-rule="evenodd" fill="#CCCCCC" stroke="#CCCCCC" stroke-miterlimit="10" d="M418.317,372.729
	c1.453,16.28,32.997,19.88,31.256,34.543c-1.331,11.215-17.713,11.786-27.965,8.226c-1.546-6.132-6.215-9.141-4.935-18.095
	c-6.061,1.615-4.466,10.888-4.936,18.095c17.825,15.131,55.171,7.126,52.639-16.45c-1.885-17.578-27.624-15.221-32.899-32.899
	c3.501-17.358,36.063-14.438,31.255,8.226c6.638-1.041,4.47-10.887,4.935-18.095C447.885,341.864,416.442,351.636,418.317,372.729z"
	/>
<path fill-rule="evenodd" clip-rule="evenodd" fill="#CCCCCC" stroke="#CCCCCC" stroke-miterlimit="10" d="M242.597,369.14
	c8.087-4.525,8.524-16.699,24.674-13.16c-1.438,23.784-8.027,42.419-9.869,65.799c4.385,0,8.772,0,13.16,0
	c5.554-20.762,6.084-46.554,13.161-65.799c6.448-1.776,20.256,3.809,21.384-3.29C285.252,352.586,239.158,340.471,242.597,369.14z"
	/>
<path fill-rule="evenodd" clip-rule="evenodd" fill="#CCCCCC" stroke="#CCCCCC" stroke-miterlimit="10" d="M327.746,421.612
	c14.807,0,29.61,0,44.416,0c3.646-5.125,7.822-9.724,9.87-16.449c-7.974,7.396-22.834,16.624-39.479,9.87
	c3.096-8.417,2.238-20.79,6.58-27.964c7.976-1.893,23.713,3.974,26.319-3.292c-4.993-4.876-21.326,1.59-26.319-3.289
	c1.949-7.921,1.776-17.963,4.934-24.673c15.956-1.699,28.293,0.22,29.61,13.158c2.308-6.2,4.438-13.454,0-18.096
	c-17.545,0-35.093,0-52.639,0C346.135,367.465,327.612,398.938,327.746,421.612z"/>
<g>
	<path fill-rule="evenodd" clip-rule="evenodd" fill="#CCCCCC" stroke="#CCCCCC" stroke-miterlimit="10" d="M197.725,348.459
		c-23.247,18.702-33.928,49.947-50.687,75.151c12.414-0.996,11.149-15.658,19.23-20.976h27.966
		c2.646,13.656,8.995,23.611,27.955,20.976C206.414,406.182,206.344,373.053,197.725,348.459z M169.758,397.399
		c3.771-10.81,11.524-17.625,15.728-27.967c4.287,7.366,5.411,17.896,6.992,27.967H169.758z"/>
</g>
</svg>
