<?xml version="1.0" encoding="utf-8"?>
<!-- Generator: Adobe Illustrator 15.1.0, SVG Export Plug-In . SVG Version: 6.00 Build 0)  -->
<!DOCTYPE svg PUBLIC "-//W3C//DTD SVG 1.1//EN" "http://www.w3.org/Graphics/SVG/1.1/DTD/svg11.dtd">
<svg version="1.1" id="Layer_1" xmlns="http://www.w3.org/2000/svg" xmlns:xlink="http://www.w3.org/1999/xlink" x="0px" y="0px"
	 width="530.667px" height="346px" viewBox="0 0 530.667 346" enable-background="new 0 0 530.667 346" xml:space="preserve">
<radialGradient id="SVGID_1_" cx="265" cy="175.1499" r="215.9535" gradientUnits="userSpaceOnUse">
	<stop  offset="0" style="stop-color:#FFB545"/>
	<stop  offset="0.4562" style="stop-color:#FFB343"/>
	<stop  offset="0.6342" style="stop-color:#FFAC3D"/>
	<stop  offset="0.7636" style="stop-color:#FFA031"/>
	<stop  offset="0.8695" style="stop-color:#FF8F21"/>
	<stop  offset="0.96" style="stop-color:#FF790C"/>
	<stop  offset="1" style="stop-color:#FF6C00"/>
</radialGradient>
<path fill="url(#SVGID_1_)" d="M522.73,269.03c0,15.04-1.29,29.78-3.771,44.121c-0.01,0.08-0.03,0.149-0.04,0.229
	c-0.46,2.69-0.97,5.36-1.52,8.01c-0.61,2.96-1.271,5.891-1.98,8.811c-0.72,2.95-1.49,5.88-2.31,8.79V339H16.9v-0.01
	c-0.82-2.91-1.59-5.84-2.31-8.79c-1.36-5.55-2.53-11.16-3.51-16.84l-0.04-0.21c-2.48-14.33-3.77-29.07-3.77-44.121
	c0-58.24,19.32-111.97,51.89-155.12C106.21,51.58,180.9,11.3,265,11.3c110.88,0,205.41,70.02,241.77,168.26
	C517.09,207.43,522.73,237.57,522.73,269.03z"/>
<path opacity="0.2" fill="#FFF9B3" d="M413.223,241.858C411.843,162.914,348.163,98,269.799,98
	c-79.229,0-143.457,64.975-143.457,145.126c0,0.818,0.033,1.629,0.046,2.444C222.016,245.401,317.604,241.316,413.223,241.858z"/>
<path opacity="0.89" fill="#FFF992" d="M378.212,225.527c-1.043-58.718-49.18-107-108.417-107
	c-59.892,0-108.442,48.328-108.442,107.942c0,0.609,0.025,1.211,0.035,1.818C233.674,228.162,305.932,225.125,378.212,225.527z"/>
<ellipse fill="#F9FFC0" cx="269.794" cy="226.665" rx="88.91" ry="88.5"/>
<path fill="#22A835" d="M418.52,313.36H11.08c-2.51-14.4-3.81-29.21-3.81-44.331c0-58.24,19.32-111.97,51.89-155.12
	c18.7,5.16,76.93,22.77,110.46,50.09c40.33,32.87,82.22,82.29,97.2,95.94c14.979,13.64,119.819,48.27,119.819,48.27L418.52,313.36z"
	/>
<path fill="#178E47" d="M522.73,269.03c0,15.12-1.301,29.94-3.811,44.35l-321.03-0.21c0,0,44.47-35.65,71.9-40.53
	c0,0,47.12-6.7,84-20.1c36.88-13.41,82.24-53.61,110.08-60.83c18.01-4.67,29.979-8.91,42.899-12.15
	C517.09,207.43,522.73,237.57,522.73,269.03z"/>
<g>
	<rect x="39.736" y="191.711" fill="#EADCCA" width="170.558" height="121.65"/>
	<rect x="107.98" y="191.711" fill="#E2D4C5" width="102.641" height="121.65"/>
	<rect x="55.944" y="207.815" fill="#7DF3FF" width="17.474" height="32.474"/>
	<rect x="99.243" y="207.815" fill="#77E5F7" width="17.474" height="32.474"/>
	<rect x="137.388" y="207.815" fill="#77E5F7" width="17.474" height="32.474"/>
	<rect x="174.501" y="207.815" fill="#77E5F7" width="17.474" height="32.474"/>
	<rect x="174.501" y="260.525" fill="#77E5F7" width="17.474" height="32.474"/>
	<rect x="137.388" y="259.938" fill="#77E5F7" width="17.474" height="32.474"/>
	<rect x="99.243" y="259.939" fill="#77E5F7" width="17.474" height="32.473"/>
	<rect x="55.944" y="260.525" fill="#7DF3FF" width="17.474" height="32.473"/>
</g>
<g>
	<rect x="433.68" y="158.722" fill="#FFDDA6" width="27.001" height="154.64"/>
	<rect x="439.734" y="266" fill="#E0C194" width="14.933" height="47.361"/>
	<path fill="#E23513" d="M418.524,163.803c6.645-19.592,20.633-32.784,28.501-51.473c8.742,18.689,20.982,32.981,28.851,51.67
		c-15.737-4.397-32.348-6.596-48.432-2.524C422.074,162.823,418.524,163.803,418.524,163.803z"/>
	<path fill="#D12913" d="M447.025,112.33c8.742,18.689,20.982,32.981,28.851,51.67c-9.896-2.766-20.139-4.662-30.378-4.675"/>
</g>
<g>
	<rect x="214.042" y="173.408" fill="#FFF0D9" width="204.482" height="141.729"/>
	<rect x="314.982" y="173.408" fill="#F7E8D5" width="103.542" height="143.042"/>
	<rect x="222.242" y="158.722" fill="#FFD8BD" width="17.474" height="16.495"/>
	<rect x="246.187" y="158.722" fill="#FFD8BD" width="17.474" height="16.495"/>
	<rect x="230.979" y="191.711" fill="#D7F9F7" width="17.474" height="21.649"/>
	<rect x="230.979" y="233.464" fill="#D7F9F7" width="17.474" height="21.649"/>
	<rect x="230.979" y="272.64" fill="#D7F9F7" width="17.474" height="21.649"/>
	<rect x="378.532" y="276.176" fill="#CEF2F1" width="17.474" height="21.649"/>
	<rect x="378.531" y="233.464" fill="#CEF2F1" width="17.475" height="21.649"/>
	<rect x="306.242" y="191.711" fill="#CEF2F1" width="17.474" height="21.649"/>
	<rect x="378.531" y="191.711" fill="#CEF2F1" width="17.474" height="21.649"/>
	<rect x="269.794" y="158.722" fill="#FFD8BD" width="17.475" height="16.495"/>
	<rect x="293.505" y="158.722" fill="#FFD8BD" width="17.475" height="16.495"/>
	<rect x="320.283" y="158.722" fill="#F2CBB1" width="17.475" height="16.495"/>
	<rect x="345.052" y="158.722" fill="#F2CBB1" width="17.475" height="16.495"/>
	<rect x="369.794" y="158.722" fill="#F2CBB1" width="17.475" height="16.495"/>
	<rect x="394.536" y="158.722" fill="#F2CBB1" width="17.475" height="16.495"/>
	<path fill="#DBAE67" d="M349.518,303.033c0,3.451-0.152,6.841-0.455,10.141h-68.166c-0.303-3.3-0.455-6.689-0.455-10.141
		c0-34.623,15.462-62.683,34.541-62.683C334.055,240.351,349.518,268.41,349.518,303.033z"/>
	<path fill="#DBAE67" d="M280.899,312.587c-0.303-3.3-0.455-6.689-0.455-10.141c0-34.623,15.462-62.683,34.541-62.683"/>
	<path fill="#D1A565" d="M314.985,239.764c19.072,0,34.535,28.06,34.535,62.683c0,3.451-0.152,6.841-0.455,10.141h-37.732"/>
</g>
<polyline fill="#26EA75" points="518.96,312.165 11.04,312.165 14.28,326.455 "/>
<g>
	<polygon fill="#26EA75" points="518.96,313.15 513.11,338.99 513.11,339 16.9,339 16.9,338.99 11.04,313.15 	"/>
	<polygon fill="#25D86D" points="14.28,326.455 16.9,338.005 16.9,338.015 513.11,338.015 515.342,328.152 	"/>
</g>
</svg>
